<svg width="108" height="18" fill="none" xmlns="http://www.w3.org/2000/svg"><path fill-rule="evenodd" clip-rule="evenodd" d="M104 3v14h-2V3h-4V1h10v2h-4zm-8 8l-2 1-2 1a12 12 0 01-2-1v5h-2V1a11 11 0 014 0h2l2 1 1 2v6l-1 1zm-1-6l-1-2h-1l-1-1h-2v9h3l1-1 1-1V7 5zm-12 8h-5l-1 4h-2l4-16h3l4 16h-2l-1-4zM80 3l-2 9h4l-2-9zM70 5l-3 10h-2L61 5l-1 12h-2l1-16h3l4 11 3-11h3l1 16h-2L70 5zM54 16l-1 1-2 1-2-1-2-1-1-3V9 5l1-2 2-2h4l1 2 1 2 1 4-1 4-1 3zM53 6V4l-1-2h-2l-1 2-1 2v7l1 2 1 1h2l1-1v-2l1-4-1-3zm-12 4h-5v7h-2V1h2v7h5V1h2v16h-2v-7zm-11 7l-3-7-3 7h-2l3-8-3-8h2l3 7 2-7h2l-3 8 4 8h-2zM12 1h8v2h-6v5h6v2h-6v6h6v1h-8V1zM7 17H5V3H1V1h9v2H7v14z" fill="#fff"/></svg>